# xmcd
#
# Track frame offsets: 
#        160
#        36750
#        46960
#        73070
#        86533
#        97985
#        106245
#        137693
#        163425
#        185050
#        195833
#        214988
#        238425
#        256515
#
# Disc length: 3521 seconds
#
# Revision: 2
# Processed by: cddbd v1.4PL0 Copyright (c) Steve Scherf et al.
# Submitted via: ExactAudioCopy v0.95a2
#
DISCID=c50dbf0e
DTITLE=Mike Oldfield - Tubular Bells II
DYEAR=1900
DGENRE=Instrumental Rock
TTITLE0=Sentinel
TTITLE1=Dark Star
TTITLE2=Clear Light
TTITLE3=Blue Saloon
TTITLE4=Sunjammer
TTITLE5=Red Dawn
TTITLE6=The Bell
TTITLE7=Weightless
TTITLE8=The Great Plain
TTITLE9=Sunset Door
TTITLE10=Tattoo
TTITLE11=Altered State
TTITLE12=Maya Gold
TTITLE13=Moonshine
EXTD=
EXTT0=
EXTT1=
EXTT2=
EXTT3=
EXTT4=
EXTT5=
EXTT6=
EXTT7=
EXTT8=
EXTT9=
EXTT10=
EXTT11=
EXTT12=
EXTT13=
PLAYORDER=
